{
  "accessors": [
    {
      "bufferView": 2,
      "componentType": 5126,
      "count": 1037,
      "max": [
        0.51181399822235107,
        0.80778002738952637,
        0.51735597848892212
      ],
      "min": [
        -0.51181399822235107,
        -0.99753099679946899,
        -0.58861702680587769
      ],
      "type": "VEC3"
    },
    {
      "bufferView": 2,
      "byteOffset": 12444,
      "componentType": 5126,
      "count": 1037,
      "max": [
        1,
        0.02620750293135643,
        0.99991708993911743
      ],
      "min": [
        -1,
        -1,
        -1
      ],
      "type": "VEC3"
    },
    {
      "bufferView": 3,
      "componentType": 5126,
      "count": 1037,
      "max": [
        1,
        0.73948591947555542,
        1,
        1
      ],
      "min": [
        -1,
        -0.73947679996490479,
        -1,
        1
      ],
      "type": "VEC4"
    },
    {
      "bufferView": 1,
      "componentType": 5126,
      "count": 1037,
      "max": [
        0.96479600667953491,
        0.99208998680114746
      ],
      "min": [
        0.0079234195873141289,
        0.023763500154018402
      ],
      "type": "VEC2"
    },
    {
      "bufferView": 0,
      "componentType": 5125,
      "count": 2796,
      "max": [
        1036
      ],
      "min": [
        0
      ],
      "type": "SCALAR"
    },
    {
      "bufferView": 2,
      "byteOffset": 24888,
      "componentType": 5126,
      "count": 208,
      "max": [
        0.27193999290466309,
        0.77264201641082764,
        0.68889397382736206
      ],
      "min": [
        -0.27193999290466309,
        0.66408300399780273,
        0.49831900000572205
      ],
      "type": "VEC3"
    },
    {
      "bufferView": 2,
      "byteOffset": 27384,
      "componentType": 5126,
      "count": 208,
      "max": [
        0.99977809190750122,
        1,
        0.9513588547706604
      ],
      "min": [
        -0.99977809190750122,
        -0.99028623104095459,
        -0.00025152511079795659
      ],
      "type": "VEC3"
    },
    {
      "bufferView": 3,
      "byteOffset": 16592,
      "componentType": 5126,
      "count": 208,
      "max": [
        1,
        0.73498106002807617,
        1,
        1
      ],
      "min": [
        -0.00054780504433438182,
        -0.73504179716110229,
        -1,
        1
      ],
      "type": "VEC4"
    },
    {
      "bufferView": 1,
      "byteOffset": 8296,
      "componentType": 5126,
      "count": 208,
      "max": [
        0.97901201248168945,
        0.75323700904846191
      ],
      "min": [
        0.75091898441314697,
        0.10971699655056
      ],
      "type": "VEC2"
    },
    {
      "bufferView": 0,
      "byteOffset": 11184,
      "componentType": 5125,
      "count": 468,
      "max": [
        207
      ],
      "min": [
        0
      ],
      "type": "SCALAR"
    },
    {
      "bufferView": 2,
      "byteOffset": 29880,
      "componentType": 5126,
      "count": 368,
      "max": [
        0.33367601037025452,
        0.91803699731826782,
        -0.45120000839233398
      ],
      "min": [
        -0.33367601037025452,
        0.83958297967910767,
        -0.66306698322296143
      ],
      "type": "VEC3"
    },
    {
      "bufferView": 2,
      "byteOffset": 34296,
      "componentType": 5126,
      "count": 368,
      "max": [
        1,
        1,
        1
      ],
      "min": [
        -1,
        -1,
        -1
      ],
      "type": "VEC3"
    },
    {
      "bufferView": 3,
      "byteOffset": 19920,
      "componentType": 5126,
      "count": 368,
      "max": [
        1,
        0.70710784196853638,
        1,
        1
      ],
      "min": [
        -1,
        -0.7071077823638916,
        -1,
        1
      ],
      "type": "VEC4"
    },
    {
      "bufferView": 1,
      "byteOffset": 9960,
      "componentType": 5126,
      "count": 368,
      "max": [
        0.97747999429702759,
        0.99208998680114746
      ],
      "min": [
        0.11826200038194656,
        0.027438800781965256
      ],
      "type": "VEC2"
    },
    {
      "bufferView": 0,
      "byteOffset": 13056,
      "componentType": 5125,
      "count": 840,
      "max": [
        367
      ],
      "min": [
        0
      ],
      "type": "SCALAR"
    },
    {
      "bufferView": 2,
      "byteOffset": 38712,
      "componentType": 5126,
      "count": 1184,
      "max": [
        0.56354600191116333,
        -0.65072602033615112,
        -0.19692499935626984
      ],
      "min": [
        -0.56354600191116333,
        -1,
        -0.54089200496673584
      ],
      "type": "VEC3"
    },
    {
      "bufferView": 2,
      "byteOffset": 52920,
      "componentType": 5126,
      "count": 1184,
      "max": [
        1,
        1,
        0.98480778932571411
      ],
      "min": [
        -1,
        -1,
        -0.98480778932571411
      ],
      "type": "VEC3"
    },
    {
      "bufferView": 3,
      "byteOffset": 25808,
      "componentType": 5126,
      "count": 1184,
      "max": [
        0.70167416334152222,
        0.9925493597984314,
        1,
        1
      ],
      "min": [
        -0.70167410373687744,
        -1,
        -1,
        1
      ],
      "type": "VEC4"
    },
    {
      "bufferView": 1,
      "byteOffset": 12904,
      "componentType": 5126,
      "count": 1184,
      "max": [
        0.98835402727127075,
        0.99208998680114746
      ],
      "min": [
        0.0079234195873141289,
        0.0093738995492458344
      ],
      "type": "VEC2"
    },
    {
      "bufferView": 0,
      "byteOffset": 16416,
      "componentType": 5125,
      "count": 3240,
      "max": [
        1183
      ],
      "min": [
        0
      ],
      "type": "SCALAR"
    },
    {
      "bufferView": 2,
      "byteOffset": 67128,
      "componentType": 5126,
      "count": 124,
      "max": [
        0.5329819917678833,
        0.81357598304748535,
        0.028075499460101128
      ],
      "min": [
        -0.5329819917678833,
        0.58207798004150391,
        0.0030176399741321802
      ],
      "type": "VEC3"
    },
    {
      "bufferView": 2,
      "byteOffset": 68616,
      "componentType": 5126,
      "count": 124,
      "max": [
        0.99963885545730591,
        0.99963885545730591,
        1
      ],
      "min": [
        -0.99963885545730591,
        -0.99963885545730591,
        -1
      ],
      "type": "VEC3"
    },
    {
      "bufferView": 3,
      "byteOffset": 44752,
      "componentType": 5126,
      "count": 124,
      "max": [
        1,
        0.16866295039653778,
        1,
        1
      ],
      "min": [
        -1,
        -0.16866295039653778,
        -1,
        1
      ],
      "type": "VEC4"
    },
    {
      "bufferView": 1,
      "byteOffset": 22376,
      "componentType": 5126,
      "count": 124,
      "max": [
        0.98616999387741089,
        0.93630301952362061
      ],
      "min": [
        0.84822100400924683,
        0.046001899987459183
      ],
      "type": "VEC2"
    },
    {
      "bufferView": 0,
      "byteOffset": 29376,
      "componentType": 5125,
      "count": 252,
      "max": [
        123
      ],
      "min": [
        0
      ],
      "type": "SCALAR"
    },
    {
      "bufferView": 2,
      "byteOffset": 70104,
      "componentType": 5126,
      "count": 124,
      "max": [
        0.5329819917678833,
        0.81357598304748535,
        -0.16141299903392792
      ],
      "min": [
        -0.5329819917678833,
        0.58207798004150391,
        -0.18647100031375885
      ],
      "type": "VEC3"
    },
    {
      "bufferView": 2,
      "byteOffset": 71592,
      "componentType": 5126,
      "count": 124,
      "max": [
        0.99963885545730591,
        0.99963885545730591,
        1
      ],
      "min": [
        -0.99963885545730591,
        -0.99963885545730591,
        -1
      ],
      "type": "VEC3"
    },
    {
      "bufferView": 3,
      "byteOffset": 46736,
      "componentType": 5126,
      "count": 124,
      "max": [
        1,
        0.16866295039653778,
        1,
        1
      ],
      "min": [
        -1,
        -0.16866293549537659,
        -1,
        1
      ],
      "type": "VEC4"
    },
    {
      "bufferView": 1,
      "byteOffset": 23368,
      "componentType": 5126,
      "count": 124,
      "max": [
        0.98728197813034058,
        0.95492798089981079
      ],
      "min": [
        0.84822100400924683,
        0.06584390252828598
      ],
      "type": "VEC2"
    },
    {
      "bufferView": 0,
      "byteOffset": 30384,
      "componentType": 5125,
      "count": 252,
      "max": [
        123
      ],
      "min": [
        0
      ],
      "type": "SCALAR"
    },
    {
      "bufferView": 2,
      "byteOffset": 73080,
      "componentType": 5126,
      "count": 160,
      "max": [
        0.49141699075698853,
        -0.77200502157211304,
        -0.31642898917198181
      ],
      "min": [
        -0.49141699075698853,
        -0.8793799877166748,
        -0.42380398511886597
      ],
      "type": "VEC3"
    },
    {
      "bufferView": 2,
      "byteOffset": 75000,
      "componentType": 5126,
      "count": 160,
      "max": [
        1,
        0.92387974262237549,
        0.92387974262237549
      ],
      "min": [
        -1,
        -0.92387974262237549,
        -0.92387974262237549
      ],
      "type": "VEC3"
    },
    {
      "bufferView": 3,
      "byteOffset": 48720,
      "componentType": 5126,
      "count": 160,
      "max": [
        0.67859792709350586,
        0.92387980222702026,
        0.92387980222702026,
        1
      ],
      "min": [
        -0.67859798669815063,
        -0.92387980222702026,
        -1,
        1
      ],
      "type": "VEC4"
    },
    {
      "bufferView": 1,
      "byteOffset": 24360,
      "componentType": 5126,
      "count": 160,
      "max": [
        0.94771498441696167,
        0.93630301952362061
      ],
      "min": [
        0.53159397840499878,
        0.06584390252828598
      ],
      "type": "VEC2"
    },
    {
      "bufferView": 0,
      "byteOffset": 31392,
      "componentType": 5125,
      "count": 336,
      "max": [
        159
      ],
      "min": [
        0
      ],
      "type": "SCALAR"
    },
    {
      "bufferView": 2,
      "byteOffset": 76920,
      "componentType": 5126,
      "count": 339,
      "max": [
        0.55155098438262939,
        0.86465400457382202,
        0.69836598634719849
      ],
      "min": [
        -0.55155098438262939,
        0.76700901985168457,
        -0.61548900604248047
      ],
      "type": "VEC3"
    },
    {
      "bufferView": 2,
      "byteOffset": 80988,
      "componentType": 5126,
      "count": 339,
      "max": [
        1,
        1,
        1
      ],
      "min": [
        -1,
        -1,
        -1
      ],
      "type": "VEC3"
    },
    {
      "bufferView": 3,
      "byteOffset": 51280,
      "componentType": 5126,
      "count": 339,
      "max": [
        1,
        0.718822181224823,
        1,
        1
      ],
      "min": [
        -1,
        -0.71702450513839722,
        -1,
        1
      ],
      "type": "VEC4"
    },
    {
      "bufferView": 1,
      "byteOffset": 25640,
      "componentType": 5126,
      "count": 339,
      "max": [
        0.86657202243804932,
        0.65920799970626831
      ],
      "min": [
        0.0079234195873141289,
        0.052533399313688278
      ],
      "type": "VEC2"
    },
    {
      "bufferView": 0,
      "byteOffset": 32736,
      "componentType": 5125,
      "count": 876,
      "max": [
        338
      ],
      "min": [
        0
      ],
      "type": "SCALAR"
    },
    {
      "bufferView": 2,
      "byteOffset": 85056,
      "componentType": 5126,
      "count": 376,
      "max": [
        0.46593999862670898,
        0.96389001607894897,
        0.53868001699447632
      ],
      "min": [
        -0.46593999862670898,
        0.84193497896194458,
        -0.55417197942733765
      ],
      "type": "VEC3"
    },
    {
      "bufferView": 2,
      "byteOffset": 89568,
      "componentType": 5126,
      "count": 376,
      "max": [
        0.9999883770942688,
        0.9999963641166687,
        0.99987125396728516
      ],
      "min": [
        -0.99998873472213745,
        -1,
        -0.99987798929214478
      ],
      "type": "VEC3"
    },
    {
      "bufferView": 3,
      "byteOffset": 56704,
      "componentType": 5126,
      "count": 376,
      "max": [
        1,
        0.99365770816802979,
        1,
        1
      ],
      "min": [
        -1,
        -0.9895973801612854,
        -1,
        -1
      ],
      "type": "VEC4"
    },
    {
      "bufferView": 1,
      "byteOffset": 28352,
      "componentType": 5126,
      "count": 376,
      "max": [
        0.96903300285339355,
        0.99208998680114746
      ],
      "min": [
        0.0079234195873141289,
        0.0079102497547864914
      ],
      "type": "VEC2"
    },
    {
      "bufferView": 0,
      "byteOffset": 36240,
      "componentType": 5125,
      "count": 1212,
      "max": [
        375
      ],
      "min": [
        0
      ],
      "type": "SCALAR"
    },
    {
      "bufferView": 2,
      "byteOffset": 94080,
      "componentType": 5126,
      "count": 602,
      "max": [
        0.49762400984764099,
        1,
        -0.57786101102828979
      ],
      "min": [
        -0.49762400984764099,
        0.87949597835540771,
        -0.69836598634719849
      ],
      "type": "VEC3"
    },
    {
      "bufferView": 2,
      "byteOffset": 101304,
      "componentType": 5126,
      "count": 602,
      "max": [
        1,
        1,
        1
      ],
      "min": [
        -1,
        -1,
        -1
      ],
      "type": "VEC3"
    },
    {
      "bufferView": 3,
      "byteOffset": 62720,
      "componentType": 5126,
      "count": 602,
      "max": [
        0.69474709033966064,
        1,
        1,
        1
      ],
      "min": [
        -0.69474714994430542,
        -1,
        -1,
        1
      ],
      "type": "VEC4"
    },
    {
      "bufferView": 1,
      "byteOffset": 31360,
      "componentType": 5126,
      "count": 602,
      "max": [
        0.99207699298858643,
        0.99208998680114746
      ],
      "min": [
        0.0079234195873141289,
        0.0091043701395392418
      ],
      "type": "VEC2"
    },
    {
      "bufferView": 0,
      "byteOffset": 41088,
      "componentType": 5125,
      "count": 1584,
      "max": [
        601
      ],
      "min": [
        0
      ],
      "type": "SCALAR"
    }
  ],
  "asset": {
    "extras": {
      "author": "Pandurus (https://sketchfab.com/Pandurus)",
      "license": "CC-BY-4.0 (http://creativecommons.org/licenses/by/4.0/)",
      "source": "https://sketchfab.com/3d-models/public-bin-free-f4440ba1c72f42bb887110ada7dcf3ca",
      "title": "Public Bin ( Free )"
    },
    "generator": "Sketchfab-6.9.0",
    "version": "2.0"
  },
  "bufferViews": [
    {
      "buffer": 0,
      "byteLength": 47424,
      "byteOffset": 0,
      "name": "floatBufferViews",
      "target": 34963
    },
    {
      "buffer": 0,
      "byteLength": 36176,
      "byteOffset": 47424,
      "byteStride": 8,
      "name": "floatBufferViews",
      "target": 34962
    },
    {
      "buffer": 0,
      "byteLength": 108528,
      "byteOffset": 83600,
      "byteStride": 12,
      "name": "floatBufferViews",
      "target": 34962
    },
    {
      "buffer": 0,
      "byteLength": 72352,
      "byteOffset": 192128,
      "byteStride": 16,
      "name": "floatBufferViews",
      "target": 34962
    }
  ],
  "buffers": [
    {
      "byteLength": 264480,
      "uri": "scene.bin"
    }
  ],
  "images": [
    {
      "uri": "textures/1001_baseColor.jpeg"
    },
    {
      "uri": "textures/1001_metallicRoughness.png"
    },
    {
      "uri": "textures/1001_normal.png"
    }
  ],
  "materials": [
    {
      "doubleSided": true,
      "name": "1001",
      "normalTexture": {
        "index": 2,
        "scale": 1,
        "texCoord": 0
      },
      "occlusionTexture": {
        "index": 1,
        "strength": 1,
        "texCoord": 0
      },
      "pbrMetallicRoughness": {
        "baseColorFactor": [
          1,
          1,
          1,
          1
        ],
        "baseColorTexture": {
          "index": 0,
          "texCoord": 0
        },
        "metallicFactor": 1,
        "metallicRoughnessTexture": {
          "index": 1,
          "texCoord": 0
        },
        "roughnessFactor": 1
      }
    }
  ],
  "meshes": [
    {
      "name": "defaultMaterial",
      "primitives": [
        {
          "attributes": {
            "NORMAL": 1,
            "POSITION": 0,
            "TANGENT": 2,
            "TEXCOORD_0": 3
          },
          "indices": 4,
          "material": 0,
          "mode": 4
        }
      ]
    },
    {
      "name": "defaultMaterial",
      "primitives": [
        {
          "attributes": {
            "NORMAL": 6,
            "POSITION": 5,
            "TANGENT": 7,
            "TEXCOORD_0": 8
          },
          "indices": 9,
          "material": 0,
          "mode": 4
        }
      ]
    },
    {
      "name": "defaultMaterial",
      "primitives": [
        {
          "attributes": {
            "NORMAL": 11,
            "POSITION": 10,
            "TANGENT": 12,
            "TEXCOORD_0": 13
          },
          "indices": 14,
          "material": 0,
          "mode": 4
        }
      ]
    },
    {
      "name": "defaultMaterial",
      "primitives": [
        {
          "attributes": {
            "NORMAL": 16,
            "POSITION": 15,
            "TANGENT": 17,
            "TEXCOORD_0": 18
          },
          "indices": 19,
          "material": 0,
          "mode": 4
        }
      ]
    },
    {
      "name": "defaultMaterial",
      "primitives": [
        {
          "attributes": {
            "NORMAL": 21,
            "POSITION": 20,
            "TANGENT": 22,
            "TEXCOORD_0": 23
          },
          "indices": 24,
          "material": 0,
          "mode": 4
        }
      ]
    },
    {
      "name": "defaultMaterial",
      "primitives": [
        {
          "attributes": {
            "NORMAL": 26,
            "POSITION": 25,
            "TANGENT": 27,
            "TEXCOORD_0": 28
          },
          "indices": 29,
          "material": 0,
          "mode": 4
        }
      ]
    },
    {
      "name": "defaultMaterial",
      "primitives": [
        {
          "attributes": {
            "NORMAL": 31,
            "POSITION": 30,
            "TANGENT": 32,
            "TEXCOORD_0": 33
          },
          "indices": 34,
          "material": 0,
          "mode": 4
        }
      ]
    },
    {
      "name": "defaultMaterial",
      "primitives": [
        {
          "attributes": {
            "NORMAL": 36,
            "POSITION": 35,
            "TANGENT": 37,
            "TEXCOORD_0": 38
          },
          "indices": 39,
          "material": 0,
          "mode": 4
        }
      ]
    },
    {
      "name": "defaultMaterial",
      "primitives": [
        {
          "attributes": {
            "NORMAL": 41,
            "POSITION": 40,
            "TANGENT": 42,
            "TEXCOORD_0": 43
          },
          "indices": 44,
          "material": 0,
          "mode": 4
        }
      ]
    },
    {
      "name": "defaultMaterial",
      "primitives": [
        {
          "attributes": {
            "NORMAL": 46,
            "POSITION": 45,
            "TANGENT": 47,
            "TEXCOORD_0": 48
          },
          "indices": 49,
          "material": 0,
          "mode": 4
        }
      ]
    }
  ],
  "nodes": [
    {
      "children": [
        1
      ],
      "name": "RootNode (gltf orientation matrix)",
      "rotation": [
        -0.70710678118654746,
        -0,
        -0,
        0.70710678118654757
      ]
    },
    {
      "children": [
        2
      ],
      "name": "RootNode (model correction matrix)"
    },
    {
      "children": [
        3,
        5,
        7,
        9,
        11,
        13,
        15,
        17,
        19,
        21
      ],
      "matrix": [
        1,
        0,
        0,
        0,
        0,
        -4.3711390063094768e-08,
        0.999999999999999,
        0,
        0,
        -0.999999999999999,
        -4.3711390063094768e-08,
        0,
        0,
        0,
        0,
        1
      ],
      "name": "Collada visual scene group"
    },
    {
      "children": [
        4
      ],
      "name": "Cube_3_2"
    },
    {
      "mesh": 0,
      "name": "defaultMaterial"
    },
    {
      "children": [
        6
      ],
      "name": "Cube_2_3"
    },
    {
      "mesh": 1,
      "name": "defaultMaterial"
    },
    {
      "children": [
        8
      ],
      "name": "Cube_2_2"
    },
    {
      "mesh": 2,
      "name": "defaultMaterial"
    },
    {
      "children": [
        10
      ],
      "name": "Cylinder_1_2"
    },
    {
      "mesh": 3,
      "name": "defaultMaterial"
    },
    {
      "children": [
        12
      ],
      "name": "Cube_2"
    },
    {
      "mesh": 4,
      "name": "defaultMaterial"
    },
    {
      "children": [
        14
      ],
      "name": "Cube_3"
    },
    {
      "mesh": 5,
      "name": "defaultMaterial"
    },
    {
      "children": [
        16
      ],
      "name": "Cylinder_1"
    },
    {
      "mesh": 6,
      "name": "defaultMaterial"
    },
    {
      "children": [
        18
      ],
      "name": "Cube_1"
    },
    {
      "mesh": 7,
      "name": "defaultMaterial"
    },
    {
      "children": [
        20
      ],
      "name": "Cube"
    },
    {
      "mesh": 8,
      "name": "defaultMaterial"
    },
    {
      "children": [
        22
      ],
      "name": "Cylinder"
    },
    {
      "mesh": 9,
      "name": "defaultMaterial"
    }
  ],
  "samplers": [
    {
      "magFilter": 9729,
      "minFilter": 9987,
      "wrapS": 10497,
      "wrapT": 10497
    }
  ],
  "scene": 0,
  "scenes": [
    {
      "name": "OSG_Scene",
      "nodes": [
        0
      ]
    }
  ],
  "textures": [
    {
      "sampler": 0,
      "source": 0
    },
    {
      "sampler": 0,
      "source": 1
    },
    {
      "sampler": 0,
      "source": 2
    }
  ]
}

